<svg width="24" height="24" fill="none" xmlns="http://www.w3.org/2000/svg"><path fill-rule="evenodd" clip-rule="evenodd" d="M2.804 8.353c-.28 2.603-.268 5.605.122 8.197a3.138 3.138 0 002.832 2.66l1.51.131c3.149.274 6.316.274 9.465 0l1.51-.13a3.138 3.138 0 002.832-2.66c.39-2.593.402-5.595.122-8.198a30.68 30.68 0 00-.122-.904 3.138 3.138 0 00-2.832-2.66l-1.51-.13a54.646 54.646 0 00-9.465 0l-1.51.13a3.138 3.138 0 00-2.832 2.66 31.1 31.1 0 00-.122.904zm4.594-2.2a53.146 53.146 0 019.205 0l1.51.131c.755.066 1.366.64 1.478 1.389l.034.233-5.56 3.09a4.25 4.25 0 01-4.129 0l-5.56-3.09c.01-.078.022-.156.034-.233a1.638 1.638 0 011.478-1.389l1.51-.131zm12.41 3.367a29.099 29.099 0 01-.217 6.807 1.638 1.638 0 01-1.478 1.389l-1.51.131a53.152 53.152 0 01-9.205 0l-1.51-.131a1.638 1.638 0 01-1.478-1.389 29.1 29.1 0 01-.218-6.807l5.016 2.787a5.75 5.75 0 005.585 0l5.016-2.787z" fill="#4F6BB4"/></svg>