<svg width="44" height="44" fill="none" xmlns="http://www.w3.org/2000/svg"><path d="M29.333 12.833a1.833 1.833 0 113.667 0 1.833 1.833 0 01-3.667 0z" fill="#EA472C"/><path fill-rule="evenodd" clip-rule="evenodd" d="M22 13.292a8.708 8.708 0 100 17.416 8.708 8.708 0 000-17.416zM16.042 22a5.958 5.958 0 1111.916 0 5.958 5.958 0 01-11.916 0z" fill="#EA472C"/><path fill-rule="evenodd" clip-rule="evenodd" d="M31.64 5.194a87.49 87.49 0 00-19.28 0c-3.689.412-6.667 3.318-7.1 7.026a84.19 84.19 0 000 19.56c.433 3.708 3.411 6.614 7.1 7.026a87.49 87.49 0 0019.28 0c3.689-.412 6.667-3.318 7.1-7.026.76-6.498.76-13.062 0-19.56-.433-3.708-3.411-6.614-7.1-7.026zM12.665 7.927a84.738 84.738 0 0118.67 0c2.438.272 4.392 2.197 4.674 4.612a81.446 81.446 0 010 18.922c-.282 2.415-2.236 4.34-4.674 4.612a84.74 84.74 0 01-18.67 0c-2.438-.272-4.392-2.197-4.674-4.612a81.44 81.44 0 010-18.922c.282-2.415 2.236-4.34 4.674-4.612z" fill="#EA472C"/></svg>