<svg width="44" height="44" fill="none" xmlns="http://www.w3.org/2000/svg"><path fill-rule="evenodd" clip-rule="evenodd" d="M19.04 15.32a1.375 1.375 0 00-2.082 1.18v11a1.375 1.375 0 002.083 1.18l9.166-5.5a1.375 1.375 0 000-2.36l-9.166-5.5zM24.828 22l-5.119 3.072v-6.143L24.828 22z" fill="#EA472C"/><path fill-rule="evenodd" clip-rule="evenodd" d="M31.223 8.509c-6.14-.48-12.307-.48-18.446 0L8.67 8.83a5.455 5.455 0 00-4.954 4.54 52.37 52.37 0 000 17.26 5.454 5.454 0 004.954 4.54l4.108.321c6.14.48 12.307.48 18.446 0l4.108-.321a5.454 5.454 0 004.954-4.54 52.371 52.371 0 000-17.26 5.454 5.454 0 00-4.954-4.54l-4.108-.321zm-18.231 2.742c5.996-.47 12.02-.47 18.016 0l4.108.321a2.704 2.704 0 012.457 2.25 49.62 49.62 0 010 16.355 2.704 2.704 0 01-2.457 2.251l-4.108.321c-5.996.47-12.02.47-18.016 0l-4.108-.321a2.705 2.705 0 01-2.457-2.25 49.62 49.62 0 010-16.355 2.705 2.705 0 012.457-2.251l4.108-.321z" fill="#EA472C"/></svg>