<svg width="184" height="60" fill="none" xmlns="http://www.w3.org/2000/svg"><path d="M89.598 41.258c-1.32 0-2.508-.219-3.563-.656-1.047-.446-1.914-1.063-2.601-1.852-.68-.797-1.203-1.738-1.57-2.824-.36-1.086-.54-2.278-.54-3.574 0-1.75.332-3.297.996-4.641a7.451 7.451 0 012.965-3.176c1.313-.773 2.867-1.16 4.664-1.16 1.992 0 3.742.453 5.25 1.36l-.773 1.675c-1.453-.836-2.938-1.254-4.453-1.254-1.055 0-2 .184-2.836.551-.828.36-1.508.863-2.04 1.512-.523.64-.925 1.398-1.206 2.273-.274.867-.41 1.82-.41 2.86 0 2.203.546 3.945 1.64 5.226 1.102 1.274 2.723 1.91 4.863 1.91 1.22 0 2.457-.246 3.715-.738v-4.945h-4.09l.07-1.77h5.919v7.922c-.985.469-1.938.805-2.86 1.008-.914.195-1.96.293-3.14.293zm11.004-8.918c0 2.226.511 3.976 1.535 5.25 1.023 1.265 2.535 1.898 4.535 1.898s3.504-.633 4.512-1.898c1.015-1.266 1.523-3.016 1.523-5.25 0-2.281-.512-4.05-1.535-5.309-1.016-1.258-2.512-1.886-4.488-1.886-1.977 0-3.485.628-4.524 1.886-1.039 1.258-1.558 3.028-1.558 5.309zm14.273 0c0 1.32-.184 2.527-.551 3.62-.359 1.095-.883 2.036-1.57 2.825-.68.781-1.539 1.39-2.578 1.828-1.039.43-2.207.645-3.504.645-1.75 0-3.25-.371-4.5-1.114a7.083 7.083 0 01-2.8-3.117c-.618-1.336-.927-2.902-.927-4.699 0-2.773.723-4.96 2.168-6.562 1.446-1.602 3.469-2.403 6.071-2.403 2.562 0 4.566.809 6.011 2.426 1.453 1.61 2.18 3.793 2.18 6.55z" fill="#EA472C"/><path d="M128.855 39.324c.665 0 1.247-.117 1.747-.351.5-.235.89-.559 1.171-.973.282-.414.489-.875.622-1.383.14-.508.21-1.062.21-1.664v-.95a6.66 6.66 0 00-.21-1.722 4.3 4.3 0 00-.657-1.418 2.893 2.893 0 00-1.172-.984c-.484-.235-1.05-.352-1.699-.352-.539 0-1.031.102-1.476.305a3.178 3.178 0 00-1.09.809 4.89 4.89 0 00-.727 1.16 6.042 6.042 0 00-.422 1.336c-.086.453-.129.91-.129 1.37 0 .454.047.903.141 1.349.094.445.242.878.445 1.3.203.422.45.793.739 1.114a3.31 3.31 0 001.078.761c.437.196.914.293 1.429.293zm-3.011 7.559l-.176-1.77h2.391c.664 0 1.242-.047 1.734-.14.492-.094.902-.25 1.23-.47.329-.21.594-.448.797-.714.203-.258.356-.598.457-1.02.11-.413.18-.828.211-1.242.039-.406.059-.906.059-1.5v-1.136c-.469.672-1.012 1.191-1.629 1.558-.617.36-1.402.54-2.356.54a5.442 5.442 0 01-2.039-.376 4.92 4.92 0 01-1.57-1.02 6.45 6.45 0 01-1.09-1.464 7.122 7.122 0 01-.656-1.723 8.178 8.178 0 01-.199-1.793c0-.937.113-1.804.34-2.601a6.926 6.926 0 011.031-2.133 4.62 4.62 0 011.781-1.465c.742-.36 1.59-.539 2.543-.539.844 0 1.578.164 2.203.492.633.32 1.199.817 1.699 1.488v-1.71h1.911v11.93c0 .546-.016 1.023-.047 1.429-.024.414-.09.871-.199 1.371-.102.5-.243.93-.422 1.29a4.82 4.82 0 01-.762 1.077c-.32.367-.707.66-1.16.88-.446.226-1 .41-1.664.55-.664.14-1.414.21-2.25.21h-2.168zm15.656-7.196c.93 0 1.746-.253 2.449-.761a3.452 3.452 0 001.371-2.074v-2.168c-.039 0-.277.02-.715.058-.429.04-.71.063-.843.07-1.696.149-2.879.426-3.551.833-.664.406-.996 1.058-.996 1.957 0 .687.203 1.207.609 1.558.406.352.965.528 1.676.528zM145.754 41c-.117-.5-.231-1.04-.34-1.617-.711.71-1.379 1.203-2.004 1.476-.625.274-1.359.41-2.203.41-1.203 0-2.172-.312-2.906-.937-.727-.633-1.09-1.539-1.09-2.719 0-1.312.496-2.285 1.488-2.918 1-.633 2.438-1.027 4.313-1.183.258-.024.644-.055 1.16-.094l1.172-.105v-1.137c0-.907-.211-1.578-.633-2.016-.422-.437-1.086-.656-1.992-.656-1.266 0-2.543.312-3.832.937a31.251 31.251 0 01-.305-.808c-.164-.453-.25-.688-.258-.703.571-.32 1.246-.575 2.028-.762a9.956 9.956 0 012.402-.293c1.601 0 2.754.352 3.457 1.055.711.695 1.066 1.883 1.066 3.562V41h-1.523zm21.223 0v-6.691c0-.625-.016-1.149-.047-1.57a7.562 7.562 0 00-.188-1.29c-.094-.437-.23-.781-.41-1.031a1.835 1.835 0 00-.727-.621c-.312-.164-.687-.246-1.125-.246-.859 0-1.593.23-2.203.691-.601.461-1.031 1.11-1.289 1.945-.07.563-.105 1.165-.105 1.805V41h-1.957v-6.902c0-.578-.02-1.078-.059-1.5a7.146 7.146 0 00-.222-1.242c-.11-.407-.258-.735-.446-.985a1.896 1.896 0 00-.726-.598c-.305-.148-.668-.222-1.09-.222-.938 0-1.727.238-2.367.715a3.468 3.468 0 00-1.278 1.898 16.99 16.99 0 00-.105 1.957V41h-1.957l-.024-12.855h1.641l.246 1.84c.391-.594.945-1.094 1.664-1.5.719-.407 1.535-.61 2.449-.61.477 0 .914.05 1.313.152.406.094.742.215 1.008.364.273.148.515.328.726.539.211.203.375.406.492.61.118.194.215.401.293.62.938-1.523 2.371-2.285 4.301-2.285 1.43 0 2.477.41 3.141 1.23.672.813 1.008 2.02 1.008 3.622V41h-1.957zm11.871-10.477c-.571-.687-1.356-1.03-2.356-1.03-1 0-1.816.355-2.449 1.066-.633.703-1.004 1.668-1.113 2.894h6.785c0-1.273-.289-2.25-.867-2.93zm-1.969 10.747c-1.867 0-3.34-.594-4.418-1.782-1.07-1.187-1.606-2.812-1.606-4.875 0-1.992.52-3.605 1.559-4.84 1.039-1.242 2.406-1.875 4.102-1.898 1.593 0 2.855.547 3.785 1.64.937 1.087 1.406 2.54 1.406 4.36 0 .094-.004.266-.012.516v.539h-8.824c.024 1.46.399 2.601 1.125 3.422.734.812 1.719 1.218 2.953 1.218 1.36 0 2.723-.36 4.09-1.078l.305 1.582c-1.305.797-2.793 1.196-4.465 1.196zM44.983 28.983A6.49 6.49 0 0038.5 22.5a6.456 6.456 0 00-4.142 1.5h-3.375v-6.25c0-.965.785-1.75 1.75-1.75s1.75.785 1.75 1.75V19c0 1.378 1.122 2.5 2.5 2.5 1.379 0 2.5-1.122 2.5-2.5v-4h-1v4c0 .827-.673 1.5-1.5 1.5s-1.5-.673-1.5-1.5v-1.25a2.754 2.754 0 00-2.75-2.75 2.754 2.754 0 00-2.75 2.75V24H25.6a6.45 6.45 0 00-4.1-1.467 6.49 6.49 0 00-6.484 6.483c0 1.24.356 2.396.961 3.382l-.59 8.623A3.983 3.983 0 0019.365 45a3.95 3.95 0 003.807-2.822l1.711-5.188a3 3 0 002.6 1.51 3 3 0 002.5-1.346 2.998 2.998 0 002.5 1.345 3.002 3.002 0 002.671-1.64l1.75 5.305A3.955 3.955 0 0040.715 45c2.194 0 3.979-1.785 3.978-4.013l-.6-8.739c.563-.96.89-2.073.89-3.264zm-1 0c0 .908-.224 1.762-.616 2.517l-.213.35a5.58 5.58 0 01-.842 1.066c-.064.063-.13.121-.197.18a5.453 5.453 0 01-3.614 1.37 5.49 5.49 0 01-5.484-5.483c0-1.127.342-2.174.926-3.046l.021-.03a5.708 5.708 0 01.552-.68 5.66 5.66 0 01.36-.349c.002 0 .003-.002.005-.003l.18-.157A5.458 5.458 0 0138.5 23.5a5.49 5.49 0 015.483 5.483zm-14-3.983h3.4a6.469 6.469 0 00-.349 7.551c-.008-.002-.018-.001-.027-.003a3.011 3.011 0 00-.523-.048 2.97 2.97 0 00-.349.022c-.042.005-.084.013-.125.019a2.812 2.812 0 00-.515.13c-.057.02-.114.038-.17.062-.026.011-.05.024-.075.036a2.917 2.917 0 00-.404.22l-.047.03a3.038 3.038 0 00-.253.194 2.916 2.916 0 00-.16.145l-.078.083a2.284 2.284 0 00-.133.145 2.999 2.999 0 00-.183.244l-.009.013-.01-.013a2.971 2.971 0 00-.181-.242 2.47 2.47 0 00-.138-.151c-.024-.026-.047-.052-.073-.076a2.897 2.897 0 00-.229-.203 2.87 2.87 0 00-.188-.14l-.034-.022a2.962 2.962 0 00-.427-.233l-.06-.029c-.057-.024-.116-.044-.175-.064a3.152 3.152 0 00-.306-.09 3 3 0 00-.204-.038c-.042-.007-.084-.015-.127-.02a2.94 2.94 0 00-.672-.004h-.005a6.432 6.432 0 001.04-3.502c0-1.468-.5-2.88-1.4-4.016h3.19zM21.5 23.533a5.49 5.49 0 015.483 5.483 5.488 5.488 0 01-5.42 5.48 5.442 5.442 0 01-4.636-2.646l-.56-.923a5.449 5.449 0 01-.351-1.91 5.491 5.491 0 015.484-5.484zm.719 18.344A2.961 2.961 0 0119.365 44c-1.642 0-2.978-1.336-2.98-2.944l.514-7.477A6.465 6.465 0 0021.5 35.5c.02 0 .038-.002.057-.003.019 0 .038.003.056.003a6.477 6.477 0 002.943-.709l-2.337 7.087zm5.264-4.377c-1.102 0-2-.897-2-2 0-.493.186-.94.483-1.288l.12-.121a1.992 1.992 0 011.013-.553 1.995 1.995 0 01.786.002l.025.008c.122.026.239.061.35.108l.013.007c.114.049.223.108.325.177.015.01.027.022.042.033.087.063.171.13.248.205.04.039.072.084.108.127.044.051.09.1.129.156.06.088.111.182.157.28l.023.04c.102.233.163.489.171.759l.004.105a1.99 1.99 0 01-.037.355v.004a2.004 2.004 0 01-1.96 1.596zm5 0a2.003 2.003 0 01-1.958-1.596l-.001-.003a1.995 1.995 0 01-.036-.357l.003-.106c.009-.271.07-.527.173-.758.006-.013.014-.024.02-.036.046-.1.099-.195.16-.285.036-.05.078-.095.118-.142.04-.047.076-.096.12-.14a2 2 0 01.23-.19c.02-.016.038-.034.059-.047.097-.066.201-.12.309-.168.01-.005.018-.011.028-.015.109-.046.223-.08.34-.105l.035-.011a1.96 1.96 0 01.4-.041c.123 0 .24.015.356.036.038.007.075.016.113.025.079.019.155.044.23.072.038.014.076.026.113.042.097.044.191.094.279.152.038.026.074.056.11.084a1.915 1.915 0 01.268.242c.038.041.073.085.108.13.035.047.072.091.104.141.028.044.05.091.074.136.023.042.048.082.068.125l.03.067c.093.231.148.483.148.747a2.002 2.002 0 01-2 2.001zm10.691-4.03l.52 7.552A2.982 2.982 0 0140.715 44a2.966 2.966 0 01-2.857-2.136l-2.333-7.072a6.481 6.481 0 002.942.708 6.413 6.413 0 004.474-1.805c.066-.063.133-.124.197-.19l.036-.035z" fill="#fff"/><path d="M29.483 27.5h1.5a.5.5 0 100-1h-1.5a.5.5 0 100 1zm12.25 3a1.75 1.75 0 10-1.75-1.75c0 .965.786 1.75 1.75 1.75zm0-2.5a.75.75 0 010 1.5.75.75 0 010-1.5zm-8.25.75c0 .965.786 1.75 1.75 1.75a1.75 1.75 0 10-1.75-1.75zm2.5 0a.75.75 0 01-1.5 0 .75.75 0 011.5 0zM18.841 30.5h1.143v1.142c0 .473.385.858.857.858h1.285a.859.859 0 00.858-.858V30.5h1.142a.859.859 0 00.858-.858v-1.284a.859.859 0 00-.858-.858h-1.142v-1.142a.859.859 0 00-.858-.858h-1.285a.859.859 0 00-.857.858V27.5h-1.143a.859.859 0 00-.857.858v1.284c0 .473.384.858.857.858zm.143-2h2v-2h1v2h2v1h-2v2h-1v-2h-2v-1zm19.499 1.25c-.964 0-1.75.785-1.75 1.75s.786 1.75 1.75 1.75c.966 0 1.75-.785 1.75-1.75s-.785-1.75-1.75-1.75zm0 2.5a.75.75 0 010-1.5.75.75 0 010 1.5zm0-4.5c.966 0 1.75-.785 1.75-1.75s-.784-1.75-1.75-1.75c-.964 0-1.75.785-1.75 1.75s.786 1.75 1.75 1.75zm0-2.5a.75.75 0 010 1.5.75.75 0 010-1.5z" fill="#fff"/><rect x="1" y="1" width="58" height="58" rx="29" stroke="#EA472C" stroke-width="2"/></svg>