<svg width="44" height="44" fill="none" xmlns="http://www.w3.org/2000/svg"><path fill-rule="evenodd" clip-rule="evenodd" d="M10.61 25.703c.08.027.162.046.243.058l.335.789c.325.766.762 1.801 1.214 2.881.92 2.204 1.85 4.475 2.054 5.125.254.803.523 1.35.816 1.723.151.192.326.36.531.488.104.064.213.117.327.156l.015.005c.586.222 1.121.13 1.456.017a2.4 2.4 0 00.559-.274l.008-.006 5.182-3.231 5.985 4.588c.088.068.184.125.286.17.72.313 1.416.422 2.07.333a3.166 3.166 0 001.56-.673 3.654 3.654 0 001.033-1.335l.018-.04.006-.016.003-.007.001-.003.001-.003a1.28 1.28 0 00.072-.243L39.85 8.658a1.38 1.38 0 00.026-.267c0-.807-.304-1.574-1.018-2.04-.611-.397-1.292-.414-1.722-.382-.464.036-.892.15-1.18.242a6.36 6.36 0 00-.476.172l-.02.01-30.642 12.02-.004.001a3.507 3.507 0 00-.306.126c-.181.082-.435.21-.696.389-.417.285-1.375 1.066-1.213 2.356.128 1.028.833 1.66 1.262 1.964.236.166.46.286.623.363.076.036.233.1.301.128l.017.007 5.81 1.956zM36.53 8.924l-.003.002-.047.02L5.802 20.98a1.618 1.618 0 01-.049.018l-.017.007a1.864 1.864 0 00-.167.074 1.565 1.565 0 00.158.078l5.761 1.94c.106.035.204.082.294.139l19.024-11.137.018-.01a3.313 3.313 0 01.227-.125c.132-.067.344-.167.582-.24.165-.051.654-.196 1.182-.026a1.568 1.568 0 011.078 1.263c.075.274.063.545.005.778-.126.504-.48.896-.802 1.196-.275.258-3.842 3.697-7.36 7.092l-4.79 4.622-.852.823 10.765 8.254c.247.088.393.084.46.074a.42.42 0 00.214-.095.91.91 0 00.19-.22l.002-.003 5.3-26.717a3.403 3.403 0 00-.49.158l-.004.001zM21.02 31.647L18.87 30l-.52 3.31 2.668-1.663zm-4.12-4.914l2.135-2.062 4.79-4.623 1.783-1.72-11.953 6.997.064.152c.326.768.765 1.808 1.219 2.894.34.812.694 1.667 1.018 2.459l.518-3.301c.05-.318.206-.594.426-.796z" fill="#EA472C"/></svg>